<svg xmlns="http://www.w3.org/2000/svg" viewBox="0 0 64 64">
  <rect width="64" height="64" rx="16" fill="#fff9f5" />
  <path d="M12 44a20 20 0 0 1 40 0" fill="none" stroke="#f4a08c" stroke-width="5" stroke-linecap="round" />
  <path d="M19 44a13 13 0 0 1 26 0" fill="none" stroke="#ffd98a" stroke-width="5" stroke-linecap="round" />
  <path d="M26 44a6 6 0 0 1 12 0" fill="none" stroke="#b6e3c8" stroke-width="5" stroke-linecap="round" />
  <path d="M32 26c-2.4-3.2-7-2.6-8.4.8-1 2.4.2 4.6 1.8 6.2L32 39l6.6-6c1.6-1.6 2.8-3.8 1.8-6.2-1.4-3.4-6-4-8.4-.8Z" fill="#f4836b" />
</svg>
